<svg height="1054" width="720" xmlns="http://www.w3.org/2000/svg">
<rect height="1054" fill="#555" width="720"></rect>
<text fill="#7f7" font-family="Courier New" font-size="12" xml:space="preserve">
<tspan x="10" y="26">5 megabytes installed</tspan>
<tspan x="10" y="42"></tspan>
<tspan x="10" y="58">node_modules</tspan>
<tspan x="10" y="74">└─┬ node-gallery@1.1.0 </tspan>
<tspan x="10" y="90">  ├── ejs@2.0.8 </tspan>
<tspan x="10" y="106">  ├── exif@0.1.1  (git://github.com/cianclarke/node-exif.git#7f61a74c820eed3e010c278d8d7003009b3\</tspan>
<tspan x="10" y="122">79d48)</tspan>
<tspan x="10" y="138">  ├─┬ express@4.10.7 </tspan>
<tspan x="10" y="154">  │ ├─┬ accepts@1.1.4 </tspan>
<tspan x="10" y="170">  │ │ ├─┬ mime-types@2.0.14 </tspan>
<tspan x="10" y="186">  │ │ │ └── mime-db@1.12.0 </tspan>
<tspan x="10" y="202">  │ │ └── negotiator@0.4.9 </tspan>
<tspan x="10" y="218">  │ ├── content-disposition@0.5.0 </tspan>
<tspan x="10" y="234">  │ ├── cookie@0.1.2 </tspan>
<tspan x="10" y="250">  │ ├── cookie-signature@1.0.5 </tspan>
<tspan x="10" y="266">  │ ├─┬ debug@2.1.3 </tspan>
<tspan x="10" y="282">  │ │ └── ms@0.7.0 </tspan>
<tspan x="10" y="298">  │ ├── depd@1.0.1 </tspan>
<tspan x="10" y="314">  │ ├── escape-html@1.0.1 </tspan>
<tspan x="10" y="330">  │ ├─┬ etag@1.5.1 </tspan>
<tspan x="10" y="346">  │ │ └── crc@3.2.1 </tspan>
<tspan x="10" y="362">  │ ├── finalhandler@0.3.3 </tspan>
<tspan x="10" y="378">  │ ├── fresh@0.2.4 </tspan>
<tspan x="10" y="394">  │ ├── media-typer@0.3.0 </tspan>
<tspan x="10" y="410">  │ ├── merge-descriptors@0.0.2 </tspan>
<tspan x="10" y="426">  │ ├── methods@1.1.1 </tspan>
<tspan x="10" y="442">  │ ├─┬ on-finished@2.2.1 </tspan>
<tspan x="10" y="458">  │ │ └── ee-first@1.1.0 </tspan>
<tspan x="10" y="474">  │ ├── parseurl@1.3.1 </tspan>
<tspan x="10" y="490">  │ ├── path-to-regexp@0.1.3 </tspan>
<tspan x="10" y="506">  │ ├─┬ proxy-addr@1.0.10 </tspan>
<tspan x="10" y="522">  │ │ ├── forwarded@0.1.0 </tspan>
<tspan x="10" y="538">  │ │ └── ipaddr.js@1.0.5 </tspan>
<tspan x="10" y="554">  │ ├── qs@2.3.3 </tspan>
<tspan x="10" y="570">  │ ├── range-parser@1.0.3 </tspan>
<tspan x="10" y="586">  │ ├─┬ send@0.10.1 </tspan>
<tspan x="10" y="602">  │ │ ├── destroy@1.0.3 </tspan>
<tspan x="10" y="618">  │ │ ├── mime@1.2.11 </tspan>
<tspan x="10" y="634">  │ │ ├── ms@0.6.2 </tspan>
<tspan x="10" y="650">  │ │ └── on-finished@2.1.1 </tspan>
<tspan x="10" y="666">  │ ├── serve-static@1.7.2 </tspan>
<tspan x="10" y="682">  │ ├── type-is@1.5.7 </tspan>
<tspan x="10" y="698">  │ ├── utils-merge@1.0.0 </tspan>
<tspan x="10" y="714">  │ └── vary@1.0.1 </tspan>
<tspan x="10" y="730">  ├─┬ gm@1.23.0 </tspan>
<tspan x="10" y="746">  │ ├── array-parallel@0.1.3 </tspan>
<tspan x="10" y="762">  │ ├── array-series@0.1.5 </tspan>
<tspan x="10" y="778">  │ ├─┬ cross-spawn@4.0.2 </tspan>
<tspan x="10" y="794">  │ │ ├─┬ lru-cache@4.0.2 </tspan>
<tspan x="10" y="810">  │ │ │ ├── pseudomap@1.0.2 </tspan>
<tspan x="10" y="826">  │ │ │ └── yallist@2.1.2 </tspan>
<tspan x="10" y="842">  │ │ └─┬ which@1.2.14 </tspan>
<tspan x="10" y="858">  │ │   └── isexe@2.0.0 </tspan>
<tspan x="10" y="874">  │ └─┬ debug@2.2.0 </tspan>
<tspan x="10" y="890">  │   └── ms@0.7.1 </tspan>
<tspan x="10" y="906">  ├─┬ imagemagick-stream@1.1.0 </tspan>
<tspan x="10" y="922">  │ └─┬ reduplexer@0.0.2 </tspan>
<tspan x="10" y="938">  │   └─┬ readable-stream@1.0.34 </tspan>
<tspan x="10" y="954">  │     ├── core-util-is@1.0.2 </tspan>
<tspan x="10" y="970">  │     ├── inherits@2.0.3 </tspan>
<tspan x="10" y="986">  │     ├── isarray@0.0.1 </tspan>
<tspan x="10" y="1002">  │     └── string_decoder@0.10.31 </tspan>
<tspan x="10" y="1018">  ├── memory-cache@0.1.6 </tspan>
<tspan x="10" y="1034">  └── underscore@1.8.3</tspan>
</text>
</svg>
